<svg width="59" height="48" viewBox="0 0 59 48" fill="none" xmlns="http://www.w3.org/2000/svg">
<g filter="url(#filter0_d_4492_1953)">
<rect x="4" width="64" height="48" rx="4" fill="#16C8BB"/>
<path d="M27 25.0001H33V23.0001H27V13.8461C27 13.7592 27.0227 13.6738 27.0657 13.5984C27.1088 13.5229 27.1708 13.46 27.2456 13.4158C27.3204 13.3716 27.4054 13.3476 27.4923 13.3463C27.5791 13.3449 27.6649 13.3662 27.741 13.4081L46.203 23.5621C46.2814 23.6053 46.3468 23.6687 46.3923 23.7457C46.4378 23.8228 46.4618 23.9106 46.4618 24.0001C46.4618 24.0896 46.4378 24.1774 46.3923 24.2545C46.3468 24.3315 46.2814 24.3949 46.203 24.4381L27.741 34.5921C27.6649 34.634 27.5791 34.6553 27.4923 34.654C27.4054 34.6526 27.3204 34.6287 27.2456 34.5844C27.1708 34.5402 27.1088 34.4773 27.0657 34.4018C27.0227 34.3264 27 34.241 27 34.1541V25.0001Z" fill="white"/>
</g>
<defs>
<filter id="filter0_d_4492_1953" x="0" y="0" width="72" height="56" filterUnits="userSpaceOnUse" color-interpolation-filters="sRGB">
<feFlood flood-opacity="0" result="BackgroundImageFix"/>
<feColorMatrix in="SourceAlpha" type="matrix" values="0 0 0 0 0 0 0 0 0 0 0 0 0 0 0 0 0 0 127 0" result="hardAlpha"/>
<feOffset dy="4"/>
<feGaussianBlur stdDeviation="2"/>
<feComposite in2="hardAlpha" operator="out"/>
<feColorMatrix type="matrix" values="0 0 0 0 0 0 0 0 0 0 0 0 0 0 0 0 0 0 0.25 0"/>
<feBlend mode="normal" in2="BackgroundImageFix" result="effect1_dropShadow_4492_1953"/>
<feBlend mode="normal" in="SourceGraphic" in2="effect1_dropShadow_4492_1953" result="shape"/>
</filter>
</defs>
</svg>
